<svg id="visual" viewBox="0 0 960 540" width="960" height="540" xmlns="http://www.w3.org/2000/svg" xmlns:xlink="http://www.w3.org/1999/xlink" version="1.1"><rect x="0" y="0" width="960" height="540" fill="#fff"></rect><defs><linearGradient id="grad1_0" x1="43.8%" y1="100%" x2="100%" y2="0%"><stop offset="14.444444444444446%" stop-color="#ffffff" stop-opacity="1"></stop><stop offset="85.55555555555554%" stop-color="#ffffff" stop-opacity="1"></stop></linearGradient></defs><defs><linearGradient id="grad2_0" x1="0%" y1="100%" x2="56.3%" y2="0%"><stop offset="14.444444444444446%" stop-color="#ffffff" stop-opacity="1"></stop><stop offset="85.55555555555554%" stop-color="#ffffff" stop-opacity="1"></stop></linearGradient></defs><g transform="translate(960, 540)"><path d="M-216 0C-214 -29 -211.9 -57.9 -199.6 -82.7C-187.2 -107.4 -164.4 -127.9 -141.4 -141.4C-118.4 -154.9 -95.2 -161.5 -71.6 -172.8C-47.9 -184 -24 -200 0 -216L0 0Z" fill="#1a1a1a"></path></g><g transform="translate(0, 0)"><path d="M216 0C213.6 28.7 211.1 57.3 199.6 82.7C188 108 167.4 130 145 145C122.5 159.9 98.3 167.7 73.9 178.3C49.4 189 24.7 202.5 0 216L0 0Z" fill="#1a1a1a"></path></g></svg>