<?xml version="1.0" encoding="UTF-8"?>
<!DOCTYPE svg PUBLIC "-//W3C//DTD SVG 1.1//EN" "http://www.w3.org/Graphics/SVG/1.1/DTD/svg11.dtd">
<svg xmlns="http://www.w3.org/2000/svg" version="1.1" width="512px" height="512px" style="shape-rendering:geometricPrecision; text-rendering:geometricPrecision; image-rendering:optimizeQuality; fill-rule:evenodd; clip-rule:evenodd" xmlns:xlink="http://www.w3.org/1999/xlink">
<g><path style="opacity:0.991" fill="#fefffe" d="M 239.5,15.5 C 296.677,11.3346 339.843,33.668 369,82.5C 384.441,113.548 387.775,145.882 379,179.5C 361.55,231.618 325.717,262.118 271.5,271C 214.402,275.491 171.236,253.324 142,204.5C 126.559,173.452 123.225,141.118 132,107.5C 149.618,55.3708 185.452,24.7041 239.5,15.5 Z"/></g>
<g><path style="opacity:0.991" fill="#fefffe" d="M 138.5,252.5 C 168.722,282.938 205.388,299.938 248.5,303.5C 217.706,353.744 216.206,404.744 244,456.5C 253.181,471.004 264.347,483.837 277.5,495C 208.167,495.667 138.833,495.667 69.5,495C 49.6667,489.833 37.1667,477.333 32,457.5C 31.3333,437.167 31.3333,416.833 32,396.5C 41.5215,329.063 77.0215,281.063 138.5,252.5 Z"/></g>
<g><path style="opacity:0.984" fill="#fefffe" d="M 352.5,271.5 C 402.158,267.578 439.991,286.578 466,328.5C 482.469,361.889 483.802,395.889 470,430.5C 445.36,477.913 406.194,499.413 352.5,495C 298.324,484.824 266.158,452.658 256,398.5C 251.595,348.81 270.429,310.977 312.5,285C 325.31,278.564 338.643,274.064 352.5,271.5 Z M 362.5,336.5 C 374.308,334.817 381.141,339.817 383,351.5C 383.499,356.823 383.666,362.156 383.5,367.5C 388.844,367.334 394.177,367.501 399.5,368C 411.343,369.847 416.176,376.68 414,388.5C 411.399,395.053 406.566,398.553 399.5,399C 394.177,399.499 388.844,399.666 383.5,399.5C 383.666,404.844 383.499,410.177 383,415.5C 381.153,427.343 374.32,432.176 362.5,430C 355.947,427.399 352.447,422.566 352,415.5C 351.501,410.177 351.334,404.844 351.5,399.5C 346.156,399.666 340.823,399.499 335.5,399C 323.657,397.153 318.824,390.32 321,378.5C 323.601,371.947 328.434,368.447 335.5,368C 340.823,367.501 346.156,367.334 351.5,367.5C 351.212,360.437 351.712,353.437 353,346.5C 355.022,341.98 358.189,338.647 362.5,336.5 Z"/></g>
</svg>
