<svg id="visual" viewBox="0 0 960 540" width="960" height="540" xmlns="http://www.w3.org/2000/svg" xmlns:xlink="http://www.w3.org/1999/xlink" version="1.1"><rect x="0" y="0" width="960" height="540" fill="#fff"></rect><defs><linearGradient id="grad1_0" x1="43.8%" y1="100%" x2="100%" y2="0%"><stop offset="14.444444444444446%" stop-color="#ffffff" stop-opacity="1"></stop><stop offset="85.55555555555554%" stop-color="#ffffff" stop-opacity="1"></stop></linearGradient></defs><defs><linearGradient id="grad2_0" x1="0%" y1="100%" x2="56.3%" y2="0%"><stop offset="14.444444444444446%" stop-color="#ffffff" stop-opacity="1"></stop><stop offset="85.55555555555554%" stop-color="#ffffff" stop-opacity="1"></stop></linearGradient></defs><g transform="translate(960, 540)"><path d="M-216 0C-195.8 -29.2 -175.7 -58.4 -160.2 -92.5C-144.7 -126.6 -133.9 -165.7 -108 -187.1C-82.1 -208.5 -41 -212.2 0 -216L0 0Z" fill="#399797"></path></g><g transform="translate(0, 0)"><path d="M216 0C213.2 42.8 210.5 85.5 187.1 108C163.7 130.5 119.6 132.6 85 147.2C50.4 161.8 25.2 188.9 0 216L0 0Z" fill="#399797"></path></g></svg>