<?xml version="1.0" encoding="UTF-8"?>
<!DOCTYPE svg PUBLIC "-//W3C//DTD SVG 1.1//EN" "http://www.w3.org/Graphics/SVG/1.1/DTD/svg11.dtd">
<svg xmlns="http://www.w3.org/2000/svg" version="1.1" width="512px" height="512px" style="shape-rendering:geometricPrecision; text-rendering:geometricPrecision; image-rendering:optimizeQuality; fill-rule:evenodd; clip-rule:evenodd" xmlns:xlink="http://www.w3.org/1999/xlink">
<g><path style="opacity:0.976" fill="#e1574b" d="M 233.5,-0.5 C 248.167,-0.5 262.833,-0.5 277.5,-0.5C 377.805,11.9821 449.305,63.9821 492,155.5C 502.297,180.687 508.797,206.687 511.5,233.5C 511.5,248.167 511.5,262.833 511.5,277.5C 499.018,377.805 447.018,449.305 355.5,492C 330.313,502.297 304.313,508.797 277.5,511.5C 262.833,511.5 248.167,511.5 233.5,511.5C 133.195,499.018 61.6947,447.018 19,355.5C 8.70332,330.313 2.20332,304.313 -0.5,277.5C -0.5,262.833 -0.5,248.167 -0.5,233.5C 11.9821,133.195 63.9821,61.6947 155.5,19C 180.687,8.70332 206.687,2.20332 233.5,-0.5 Z M 235.5,48.5 C 324.959,44.301 392.459,80.301 438,156.5C 467.317,214.823 470.317,274.489 447,335.5C 420.082,395.414 375.248,435.247 312.5,455C 227.585,475.244 155.752,453.411 97,389.5C 46.0506,324.535 35.0506,253.202 64,175.5C 90.9183,115.586 135.752,75.7525 198.5,56C 210.829,52.7679 223.162,50.2679 235.5,48.5 Z"/></g>
<g><path style="opacity:0.972" fill="#e1574b" d="M 247.5,111.5 C 261.88,109.195 274.047,113.195 284,123.5C 286.315,126.777 287.649,130.444 288,134.5C 288.667,183.167 288.667,231.833 288,280.5C 286.506,291.662 280.339,298.829 269.5,302C 256.152,305.665 243.486,303.998 231.5,297C 226.424,292.682 223.591,287.182 223,280.5C 222.333,231.833 222.333,183.167 223,134.5C 224.098,124.142 229.598,117.309 239.5,114C 242.31,113.218 244.977,112.384 247.5,111.5 Z"/></g>
<g><path style="opacity:0.966" fill="#e1574b" d="M 247.5,335.5 C 275.978,333.811 289.145,347.144 287,375.5C 280.229,393.972 267.062,401.806 247.5,399C 225.956,390.726 218.79,375.56 226,353.5C 230.94,344.717 238.107,338.717 247.5,335.5 Z"/></g>
</svg>
