<?xml version="1.0" encoding="UTF-8"?>
<!DOCTYPE svg PUBLIC "-//W3C//DTD SVG 1.1//EN" "http://www.w3.org/Graphics/SVG/1.1/DTD/svg11.dtd">
<svg xmlns="http://www.w3.org/2000/svg" version="1.1" width="512px" height="512px" style="shape-rendering:geometricPrecision; text-rendering:geometricPrecision; image-rendering:optimizeQuality; fill-rule:evenodd; clip-rule:evenodd" xmlns:xlink="http://www.w3.org/1999/xlink">
<g><path style="opacity:0.957" fill="#3a9b9b" d="M 192.5,-0.5 C 199.5,-0.5 206.5,-0.5 213.5,-0.5C 233.59,4.91989 246.923,17.5866 253.5,37.5C 278.583,38.9375 302.583,44.7709 325.5,55C 332.577,57.9513 339.077,61.7846 345,66.5C 348.159,73.5152 345.992,77.8485 338.5,79.5C 324.697,72.2697 310.364,66.103 295.5,61C 282.461,56.9935 269.128,54.8268 255.5,54.5C 255.5,70.5 255.5,86.5 255.5,102.5C 257.144,102.714 258.644,102.38 260,101.5C 265.083,102.307 270.25,102.807 275.5,103C 276.833,103.667 278.167,104.333 279.5,105C 282.858,113.406 286.025,121.906 289,130.5C 293.333,132.5 297.667,134.5 302,136.5C 308.967,132.6 316.134,129.1 323.5,126C 328.131,124.739 332.131,125.739 335.5,129C 341.699,134.864 347.532,141.031 353,147.5C 353.667,150.167 353.667,152.833 353,155.5C 349.356,162.621 345.856,169.787 342.5,177C 344.5,181.333 346.5,185.667 348.5,190C 357.249,192.582 365.749,195.748 374,199.5C 374.862,201.087 375.529,202.754 376,204.5C 376.667,213.833 376.667,223.167 376,232.5C 375.529,234.246 374.862,235.913 374,237.5C 366.75,240.918 359.25,243.751 351.5,246C 349.508,246.574 348.008,247.741 347,249.5C 345.629,253.073 344.129,256.573 342.5,260C 345.856,267.213 349.356,274.379 353,281.5C 353.667,284.167 353.667,286.833 353,289.5C 346.5,297.333 339.333,304.5 331.5,311C 328.833,311.667 326.167,311.667 323.5,311C 316.134,307.9 308.967,304.4 302,300.5C 297.667,302.5 293.333,304.5 289,306.5C 286.025,315.094 282.858,323.594 279.5,332C 278.167,332.667 276.833,333.333 275.5,334C 270.447,334.217 265.447,334.717 260.5,335.5C 258.929,334.691 257.262,334.357 255.5,334.5C 255.5,357.167 255.5,379.833 255.5,402.5C 274.833,402.5 294.167,402.5 313.5,402.5C 312.911,394.646 313.745,386.979 316,379.5C 329.598,371.286 342.764,362.453 355.5,353C 406.629,306.609 425.129,249.442 411,181.5C 402.04,147.89 384.707,119.556 359,96.5C 355.988,86.8462 359.488,82.6795 369.5,84C 418.494,129.546 438.66,185.713 430,252.5C 418.497,313.898 385.33,359.232 330.5,388.5C 329.167,393.167 329.167,397.833 330.5,402.5C 346.717,407.259 352.884,417.926 349,434.5C 347.877,437.249 346.377,439.749 344.5,442C 353.851,455.848 351.851,467.848 338.5,478C 336.913,478.862 335.246,479.529 333.5,480C 328.177,480.499 322.844,480.666 317.5,480.5C 319.742,495.022 314.409,505.356 301.5,511.5C 259.833,511.5 218.167,511.5 176.5,511.5C 153.796,506.798 137.129,494.132 126.5,473.5C 91.5872,475.793 64.4205,462.46 45,433.5C 29.9158,406.323 29.7491,379.156 44.5,352C 13.3199,338.469 2.48657,315.302 12,282.5C 15.6471,273.86 21.1471,266.693 28.5,261C 18.65,251.469 12.3167,239.969 9.5,226.5C 10.2935,219.882 13.9602,217.382 20.5,219C 21.9308,219.465 23.0975,220.299 24,221.5C 27.3573,233.724 33.8573,243.89 43.5,252C 50.078,250.889 56.7446,250.556 63.5,251C 65.3333,251.5 66.5,252.667 67,254.5C 68.2272,258.591 67.3939,262.091 64.5,265C 34.8005,267.936 21.9672,284.102 26,313.5C 31.0723,326.922 40.5723,334.755 54.5,337C 60.2344,330.749 66.901,325.915 74.5,322.5C 81.4894,324.479 83.656,328.812 81,335.5C 51.8574,357.264 43.524,385.264 56,419.5C 72.8229,449.826 98.3229,461.659 132.5,455C 140.752,452.476 148.419,448.809 155.5,444C 165.116,443.979 167.949,448.479 164,457.5C 157.205,462.148 150.038,466.148 142.5,469.5C 159.01,493.281 181.01,500.781 208.5,492C 226.381,483.441 236.547,469.274 239,449.5C 239.667,315.833 239.667,182.167 239,48.5C 237.375,34.4143 230.209,24.2476 217.5,18C 190.195,11.6523 170.195,20.9857 157.5,46C 166.948,47.539 175.948,50.3723 184.5,54.5C 188.378,58.6147 188.378,62.7813 184.5,67C 182.801,67.9581 180.967,68.4581 179,68.5C 137.128,53.6842 103.128,64.0176 77,99.5C 62.9003,124.077 61.0669,149.577 71.5,176C 71.6994,179.274 70.3661,181.607 67.5,183C 61.0489,185.178 56.8823,183.011 55,176.5C 53.3557,171.923 52.0224,167.256 51,162.5C 37.0483,171.549 27.5483,184.049 22.5,200C 15.1228,203.568 10.7894,201.402 9.5,193.5C 14.8045,171.864 27.4712,156.197 47.5,146.5C 51.2665,87.5717 82.2665,53.7383 140.5,45C 149.662,20.3291 166.995,5.1624 192.5,-0.5 Z M 258.5,117.5 C 261.784,117.723 264.951,118.39 268,119.5C 270.779,127.841 273.946,136.007 277.5,144C 284.078,146.082 290.411,148.748 296.5,152C 298.754,153.15 301.087,153.484 303.5,153C 311.076,149.628 318.576,146.128 326,142.5C 329.5,146 333,149.5 336.5,153C 331.87,160.758 328.203,168.925 325.5,177.5C 328.598,184.702 331.431,192.035 334,199.5C 334.5,201.333 335.667,202.5 337.5,203C 344.833,205.667 352.167,208.333 359.5,211C 360.833,216 360.833,221 359.5,226C 352.167,228.667 344.833,231.333 337.5,234C 335.667,234.5 334.5,235.667 334,237.5C 331.431,244.965 328.598,252.298 325.5,259.5C 328.203,268.075 331.87,276.242 336.5,284C 333,287.5 329.5,291 326,294.5C 318.576,290.872 311.076,287.372 303.5,284C 301.087,283.516 298.754,283.85 296.5,285C 290.148,288.226 283.648,291.06 277,293.5C 273.829,301.683 270.662,309.85 267.5,318C 263.513,319.505 259.513,319.672 255.5,318.5C 255.5,305.5 255.5,292.5 255.5,279.5C 289.546,279.419 311.046,263.086 320,230.5C 324.292,197.237 311.126,174.07 280.5,161C 272.316,158.769 263.983,157.602 255.5,157.5C 255.5,144.5 255.5,131.5 255.5,118.5C 256.791,118.737 257.791,118.404 258.5,117.5 Z M 256.5,173.5 C 276.446,173.552 291.279,182.219 301,199.5C 310.034,225.254 302.867,245.087 279.5,259C 271.911,262.405 264.078,263.572 256,262.5C 255.175,232.762 255.342,203.095 256.5,173.5 Z M 255.5,418.5 C 279.836,418.333 304.169,418.5 328.5,419C 335.916,423.286 336.249,427.953 329.5,433C 321.5,433.333 313.5,433.667 305.5,434C 299.902,436.695 298.402,440.862 301,446.5C 301.903,447.701 303.069,448.535 304.5,449C 313.268,449.058 321.935,449.725 330.5,451C 336.036,455.838 335.703,460.171 329.5,464C 303.827,464.833 278.16,464.666 252.5,463.5C 253.785,459.031 254.785,454.531 255.5,450C 263.167,449.667 270.833,449.333 278.5,449C 282.723,446.005 283.889,442.171 282,437.5C 280.786,435.951 279.286,434.785 277.5,434C 270.174,433.5 262.841,433.334 255.5,433.5C 255.5,428.5 255.5,423.5 255.5,418.5 Z M 245.5,480.5 C 264.167,480.5 282.833,480.5 301.5,480.5C 301.665,483.85 301.498,487.183 301,490.5C 300.426,492.492 299.259,493.992 297.5,495C 286.235,496.134 274.901,496.634 263.5,496.5C 253.167,496.333 242.833,496.167 232.5,496C 237.797,491.545 242.13,486.379 245.5,480.5 Z"/></g>
<g><path style="opacity:0.951" fill="#3b9a9a" d="M 479.5,85.5 C 487.184,86.8699 489.684,91.2033 487,98.5C 473.167,112.333 459.333,126.167 445.5,140C 435.488,141.32 431.988,137.154 435,127.5C 448.167,114.333 461.333,101.167 474.5,88C 476.315,87.2432 477.981,86.4098 479.5,85.5 Z"/></g>
<g><path style="opacity:0.95" fill="#3b9b9b" d="M 184.5,150.5 C 187.787,151.161 191.12,151.661 194.5,152C 200.747,155.155 201.914,159.655 198,165.5C 193.86,167.736 189.527,168.07 185,166.5C 170.555,168.28 161.888,176.28 159,190.5C 152.086,196.254 146.92,194.921 143.5,186.5C 148.506,164.487 162.173,152.487 184.5,150.5 Z"/></g>
<g><path style="opacity:0.933" fill="#3a9b9b" d="M 453.5,218.5 C 468.504,218.333 483.504,218.5 498.5,219C 500.333,219.5 501.5,220.667 502,222.5C 503.992,228.337 502.158,232.171 496.5,234C 482.5,234.667 468.5,234.667 454.5,234C 449.776,231.565 448.276,227.731 450,222.5C 450.69,220.65 451.856,219.316 453.5,218.5 Z"/></g>
<g><path style="opacity:0.949" fill="#3b9b9b" d="M 142.5,301.5 C 151.487,302.117 154.487,306.783 151.5,315.5C 151.957,319.047 153.457,322.047 156,324.5C 161.738,318.356 168.571,315.856 176.5,317C 180.804,321.155 181.138,325.488 177.5,330C 155.48,341.391 148.813,358.724 157.5,382C 157.387,387.279 154.72,390.113 149.5,390.5C 146.889,390.444 144.722,389.444 143,387.5C 135.082,370.191 135.916,353.357 145.5,337C 136.99,328.793 134.157,318.96 137,307.5C 138.021,304.65 139.854,302.65 142.5,301.5 Z"/></g>
<g><path style="opacity:0.94" fill="#3b9a9a" d="M 438.5,311.5 C 441.271,311.421 443.937,311.921 446.5,313C 459.167,320.667 471.833,328.333 484.5,336C 490.589,343.053 489.255,348.22 480.5,351.5C 464.701,343.528 449.534,334.528 435,324.5C 432.348,319.039 433.514,314.706 438.5,311.5 Z"/></g>
</svg>
