<?xml version="1.0" encoding="UTF-8"?>
<!DOCTYPE svg PUBLIC "-//W3C//DTD SVG 1.1//EN" "http://www.w3.org/Graphics/SVG/1.1/DTD/svg11.dtd">
<svg xmlns="http://www.w3.org/2000/svg" version="1.1" width="512px" height="512px" style="shape-rendering:geometricPrecision; text-rendering:geometricPrecision; image-rendering:optimizeQuality; fill-rule:evenodd; clip-rule:evenodd" xmlns:xlink="http://www.w3.org/1999/xlink">
<g><path style="opacity:0.976" fill="#fefffe" d="M 446.5,-0.5 C 452.5,-0.5 458.5,-0.5 464.5,-0.5C 489.613,4.61216 505.279,19.6122 511.5,44.5C 511.5,51.5 511.5,58.5 511.5,65.5C 509.254,74.9952 505.087,83.6619 499,91.5C 479.957,111.044 460.457,130.044 440.5,148.5C 414.18,122.68 388.014,96.6805 362,70.5C 361.333,69.8333 361.333,69.1667 362,68.5C 380.167,50.3333 398.333,32.1667 416.5,14C 425.405,6.71302 435.405,1.87968 446.5,-0.5 Z"/></g>
<g><path style="opacity:0.984" fill="#fefffe" d="M 345.5,84.5 C 346.552,84.3505 347.552,84.5172 348.5,85C 374.5,111 400.5,137 426.5,163C 331.5,256.667 237.167,351 143.5,446C 142.5,446.667 141.5,446.667 140.5,446C 115,420.5 89.5,395 64,369.5C 63.3333,368.5 63.3333,367.5 64,366.5C 158.035,272.632 251.868,178.632 345.5,84.5 Z"/></g>
<g><path style="opacity:0.969" fill="#fefffe" d="M 14.5,511.5 C 11.5,511.5 8.5,511.5 5.5,511.5C 3.16667,509.833 1.16667,507.833 -0.5,505.5C -0.5,502.167 -0.5,498.833 -0.5,495.5C 14.1291,460.8 28.2958,425.8 42,390.5C 43.25,387.084 45.4167,384.417 48.5,382.5C 74.8196,408.32 100.986,434.32 127,460.5C 126.432,464.752 123.932,467.586 119.5,469C 84.1999,482.704 49.1999,496.871 14.5,511.5 Z"/></g>
</svg>
