<?xml version="1.0" encoding="UTF-8"?>
<!DOCTYPE svg PUBLIC "-//W3C//DTD SVG 1.1//EN" "http://www.w3.org/Graphics/SVG/1.1/DTD/svg11.dtd">
<svg xmlns="http://www.w3.org/2000/svg" version="1.1" width="512px" height="512px" style="shape-rendering:geometricPrecision; text-rendering:geometricPrecision; image-rendering:optimizeQuality; fill-rule:evenodd; clip-rule:evenodd" xmlns:xlink="http://www.w3.org/1999/xlink">
<g><path style="opacity:0.992" fill="#fefffe" d="M 32.5,-0.5 C 117.833,-0.5 203.167,-0.5 288.5,-0.5C 318.245,7.08321 335.745,26.0832 341,56.5C 341.667,81.5 341.667,106.5 341,131.5C 336.406,146.216 326.573,151.716 311.5,148C 305.333,145.833 301.167,141.667 299,135.5C 297.703,109.882 297.037,84.2158 297,58.5C 294.401,50.2343 288.901,45.0677 280.5,43C 247.5,42.3333 214.5,42.3333 181.5,43C 199.526,48.6913 210.026,60.858 213,79.5C 213.5,187.833 213.667,296.166 213.5,404.5C 235.836,404.667 258.169,404.5 280.5,404C 288.901,401.932 294.401,396.766 297,388.5C 297.333,357.167 297.667,325.833 298,294.5C 302.599,278.948 312.765,273.448 328.5,278C 334.061,280.562 337.894,284.728 340,290.5C 341.139,307.783 341.639,325.116 341.5,342.5C 341.333,358.5 341.167,374.5 341,390.5C 335.931,420.902 318.431,439.735 288.5,447C 263.502,447.5 238.502,447.667 213.5,447.5C 214.107,459.625 213.274,471.625 211,483.5C 205.023,498.05 194.523,507.383 179.5,511.5C 173.167,511.5 166.833,511.5 160.5,511.5C 114.571,496.135 68.5715,480.635 22.5,465C 10.859,458.201 3.19232,448.367 -0.5,435.5C -0.5,301.167 -0.5,166.833 -0.5,32.5C 4.83333,15.8333 15.8333,4.83333 32.5,-0.5 Z"/></g>
<g><path style="opacity:0.979" fill="#fefffe" d="M 511.5,206.5 C 511.5,210.833 511.5,215.167 511.5,219.5C 510.208,222.737 508.374,225.737 506,228.5C 477.5,257 449,285.5 420.5,314C 410.749,320.929 400.749,321.262 390.5,315C 385.707,310.578 383.207,305.078 383,298.5C 382.5,277.169 382.333,255.836 382.5,234.5C 352.498,234.667 322.498,234.5 292.5,234C 278.731,228.627 273.897,218.794 278,204.5C 280.482,198.172 284.982,194.006 291.5,192C 321.832,191.5 352.165,191.333 382.5,191.5C 382.073,167.799 382.573,144.132 384,120.5C 387.663,110.838 394.663,105.838 405,105.5C 409.885,105.846 414.385,107.346 418.5,110C 448,139.5 477.5,169 507,198.5C 508.795,201.099 510.295,203.766 511.5,206.5 Z"/></g>
</svg>
