<?xml version="1.0" encoding="UTF-8"?>
<!DOCTYPE svg PUBLIC "-//W3C//DTD SVG 1.1//EN" "http://www.w3.org/Graphics/SVG/1.1/DTD/svg11.dtd">
<svg xmlns="http://www.w3.org/2000/svg" version="1.1" width="716px" height="212px" style="shape-rendering:geometricPrecision; text-rendering:geometricPrecision; image-rendering:optimizeQuality; fill-rule:evenodd; clip-rule:evenodd" xmlns:xlink="http://www.w3.org/1999/xlink">
<g><path style="opacity:1" fill="#fefefe" d="M -0.5,-0.5 C 238.167,-0.5 476.833,-0.5 715.5,-0.5C 715.5,70.1667 715.5,140.833 715.5,211.5C 476.833,211.5 238.167,211.5 -0.5,211.5C -0.5,140.833 -0.5,70.1667 -0.5,-0.5 Z"/></g>
<g><path style="opacity:1" fill="#0c3f97" d="M 225.5,53.5 C 228.518,53.3354 231.518,53.502 234.5,54C 235.931,54.4652 237.097,55.2986 238,56.5C 240.095,63.7308 237.428,67.7308 230,68.5C 223.192,67.8935 220.526,64.2268 222,57.5C 223.376,56.2949 224.542,54.9616 225.5,53.5 Z"/></g>
<g><path style="opacity:1" fill="#0b3e96" d="M 180.5,76.5 C 180.5,79.8333 180.5,83.1667 180.5,86.5C 176.5,86.5 172.5,86.5 168.5,86.5C 168.5,98.8333 168.5,111.167 168.5,123.5C 163.833,123.5 159.167,123.5 154.5,123.5C 154.5,111.5 154.5,99.5 154.5,87.5C 152.167,87.5 149.833,87.5 147.5,87.5C 147.5,83.8333 147.5,80.1667 147.5,76.5C 150.167,76.5 152.833,76.5 155.5,76.5C 155.5,74.1667 155.5,71.8333 155.5,69.5C 157.162,63.6654 160.829,59.4987 166.5,57C 171.949,56.1038 177.282,56.4372 182.5,58C 183.247,61.3096 182.581,64.4762 180.5,67.5C 177.667,67.5815 174.667,67.7482 171.5,68C 168.875,70.1962 167.875,73.0295 168.5,76.5C 172.5,76.5 176.5,76.5 180.5,76.5 Z"/></g>
<g><path style="opacity:1" fill="#063d96" d="M 189.5,87.5 C 187.393,86.5318 185.059,86.1984 182.5,86.5C 182.5,83.1667 182.5,79.8333 182.5,76.5C 184.833,76.5 187.167,76.5 189.5,76.5C 190.186,60.468 198.519,53.968 214.5,57C 216.286,57.1962 217.619,58.0295 218.5,59.5C 217.436,62.6266 216.103,65.6266 214.5,68.5C 206.237,65.1244 202.57,67.791 203.5,76.5C 207.5,76.5 211.5,76.5 215.5,76.5C 215.5,80.1667 215.5,83.8333 215.5,87.5C 211.5,87.5 207.5,87.5 203.5,87.5C 203.5,99.5 203.5,111.5 203.5,123.5C 198.833,123.5 194.167,123.5 189.5,123.5C 189.5,111.5 189.5,99.5 189.5,87.5 Z"/></g>
<g><path style="opacity:1" fill="#0b3e96" d="M 101.5,59.5 C 115.511,58.097 127.345,62.4303 137,72.5C 147.269,89.4253 145.103,104.592 130.5,118C 111.605,128.532 94.7712,126.032 80,110.5C 69.0312,85.7773 76.1979,68.7773 101.5,59.5 Z"/></g>
<g><path style="opacity:1" fill="#063d96" d="M 374.5,72.5 C 374.5,77.1667 374.5,81.8333 374.5,86.5C 384.167,86.5 393.833,86.5 403.5,86.5C 403.5,90.1667 403.5,93.8333 403.5,97.5C 393.833,97.5 384.167,97.5 374.5,97.5C 374.5,102.167 374.5,106.833 374.5,111.5C 385.833,111.5 397.167,111.5 408.5,111.5C 408.5,115.5 408.5,119.5 408.5,123.5C 392.5,123.5 376.5,123.5 360.5,123.5C 360.5,102.833 360.5,82.1667 360.5,61.5C 375.833,61.5 391.167,61.5 406.5,61.5C 406.5,64.8333 406.5,68.1667 406.5,71.5C 395.654,71.1722 384.987,71.5056 374.5,72.5 Z"/></g>
<g><path style="opacity:1" fill="#0f0f0f" d="M 541.5,90.5 C 540.833,90.5 540.5,90.1667 540.5,89.5C 551.2,78.9799 563.867,71.8133 578.5,68C 605.018,66.4286 627.018,75.5953 644.5,95.5C 632.737,109.381 617.737,116.214 599.5,116C 608.356,107.503 609.856,98.0029 604,87.5C 610.56,92.9562 613.56,99.9562 613,108.5C 620.284,105.547 626.784,101.381 632.5,96C 612.242,74.142 588.242,68.8086 560.5,80C 554.112,83.5244 547.779,87.0244 541.5,90.5 Z"/></g>
<g><path style="opacity:1" fill="#496eb1" d="M 374.5,72.5 C 384.987,71.5056 395.654,71.1722 406.5,71.5C 406.5,68.1667 406.5,64.8333 406.5,61.5C 391.167,61.5 375.833,61.5 360.5,61.5C 360.5,82.1667 360.5,102.833 360.5,123.5C 359.503,102.673 359.169,81.6733 359.5,60.5C 375.5,60.5 391.5,60.5 407.5,60.5C 407.5,64.5 407.5,68.5 407.5,72.5C 396.5,72.5 385.5,72.5 374.5,72.5 Z"/></g>
<g><path style="opacity:1" fill="#fbfbfd" d="M 101.5,72.5 C 122.503,70.6637 131.003,79.9971 127,100.5C 121.431,111.025 112.931,114.525 101.5,111C 88.8634,103.281 86.0301,92.7814 93,79.5C 95.6278,76.7895 98.4611,74.4562 101.5,72.5 Z"/></g>
<g><path style="opacity:1" fill="#0d3f97" d="M 266.5,74.5 C 273.01,74.0698 279.344,74.9031 285.5,77C 289.179,79.3458 292.179,82.3458 294.5,86C 291.367,88.4048 288.033,90.5714 284.5,92.5C 280.236,86.7984 274.569,84.9651 267.5,87C 260.206,92.468 258.706,99.3014 263,107.5C 270.59,114.327 277.923,113.993 285,106.5C 287.984,108.16 290.984,109.826 294,111.5C 292.316,117.185 288.482,121.019 282.5,123C 265.16,127.248 253.327,121.081 247,104.5C 245.701,89.3195 252.201,79.3195 266.5,74.5 Z"/></g>
<g><path style="opacity:1" fill="#0c3e97" d="M 349.5,102.5 C 337.149,102.168 324.815,102.501 312.5,103.5C 312.624,104.107 312.957,104.44 313.5,104.5C 314.346,108.338 316.679,110.838 320.5,112C 327.124,113.459 333.124,112.293 338.5,108.5C 347.326,113.482 347.326,117.982 338.5,122C 324.733,127.1 312.9,124.266 303,113.5C 294.668,95.4776 299.501,82.6443 317.5,75C 333.031,72.1748 343.531,78.0081 349,92.5C 349.498,95.8168 349.665,99.1501 349.5,102.5 Z"/></g>
<g><path style="opacity:1" fill="#bbcae2" d="M 452.5,75.5 C 457.015,74.1876 461.682,74.1876 466.5,75.5C 466.376,76.1067 466.043,76.44 465.5,76.5C 461.366,75.5151 457.032,75.1818 452.5,75.5 Z"/></g>
<g><path style="opacity:1" fill="#0d3f97" d="M 486.5,74.5 C 507.61,72.949 517.943,82.6157 517.5,103.5C 505.482,103.168 493.482,103.501 481.5,104.5C 485.619,112.132 491.953,114.632 500.5,112C 503.034,111.484 505.2,110.317 507,108.5C 509.5,111 512,113.5 514.5,116C 502.11,126.558 489.11,127.224 475.5,118C 468.481,110.949 465.981,102.449 468,92.5C 471.416,83.5829 477.583,77.5829 486.5,74.5 Z"/></g>
<g><path style="opacity:1" fill="#bac8e2" d="M 155.5,69.5 C 155.5,71.8333 155.5,74.1667 155.5,76.5C 152.833,76.5 150.167,76.5 147.5,76.5C 149.607,75.5318 151.941,75.1984 154.5,75.5C 154.205,73.2646 154.539,71.2646 155.5,69.5 Z"/></g>
<g><path style="opacity:1" fill="#003a95" d="M 236.5,75.5 C 236.5,91.1667 236.5,106.833 236.5,122.5C 232.167,122.5 227.833,122.5 223.5,122.5C 223.5,106.833 223.5,91.1667 223.5,75.5C 227.833,75.5 232.167,75.5 236.5,75.5 Z"/></g>
<g><path style="opacity:1" fill="#3b67ad" d="M 236.5,75.5 C 237.496,91.3246 237.83,107.325 237.5,123.5C 232.637,123.819 227.97,123.486 223.5,122.5C 227.833,122.5 232.167,122.5 236.5,122.5C 236.5,106.833 236.5,91.1667 236.5,75.5 Z"/></g>
<g><path style="opacity:1" fill="#093e96" d="M 452.5,75.5 C 457.032,75.1818 461.366,75.5151 465.5,76.5C 458.306,94.5631 450.806,112.563 443,130.5C 435.534,141.161 425.701,143.995 413.5,139C 412.643,138.311 411.977,137.478 411.5,136.5C 412.913,133.339 414.58,130.339 416.5,127.5C 423.371,132.354 428.704,131.021 432.5,123.5C 425.629,107.593 418.629,91.7593 411.5,76C 416.533,75.1711 421.533,75.3377 426.5,76.5C 430.452,86.6991 434.786,96.6991 439.5,106.5C 444.416,96.4206 448.749,86.0872 452.5,75.5 Z"/></g>
<g><path style="opacity:1" fill="#797979" d="M 571.5,83.5 C 574.304,82.3622 577.304,82.1955 580.5,83C 579.956,83.7172 579.289,84.2172 578.5,84.5C 576.393,83.5318 574.059,83.1984 571.5,83.5 Z"/></g>
<g><path style="opacity:1" fill="#0f0f0f" d="M 571.5,83.5 C 574.059,83.1984 576.393,83.5318 578.5,84.5C 571.585,89.3999 569.085,96.0666 571,104.5C 571.516,107.034 572.683,109.2 574.5,111C 573.833,111.667 573.167,111.667 572.5,111C 566.996,105.687 564.996,99.1869 566.5,91.5C 558.458,93.6872 551.458,97.6872 545.5,103.5C 565.149,125.827 588.815,131.327 616.5,120C 623.848,116.662 630.848,112.829 637.5,108.5C 638.167,108.5 638.5,108.833 638.5,109.5C 610.194,136.997 579.861,139.497 547.5,117C 542.659,112.99 537.992,108.823 533.5,104.5C 543.248,92.2912 555.915,85.2912 571.5,83.5 Z"/></g>
<g><path style="opacity:1" fill="#fbfcfd" d="M 335.5,92.5 C 332.232,93.8222 328.565,94.4888 324.5,94.5C 320.651,94.4987 316.984,94.1654 313.5,93.5C 314.895,87.7786 318.561,85.1119 324.5,85.5C 330.005,85.079 333.671,87.4124 335.5,92.5 Z"/></g>
<g><path style="opacity:1" fill="#eff2f8" d="M 487.5,85.5 C 494.421,84.0433 499.921,86.0433 504,91.5C 504.49,92.7932 504.657,94.1266 504.5,95.5C 496.833,95.5 489.167,95.5 481.5,95.5C 481.992,91.1691 483.992,87.8358 487.5,85.5 Z"/></g>
<g><path style="opacity:1" fill="#1f489b" d="M 585.5,84.5 C 601.83,85.8178 606.997,94.1511 601,109.5C 592.966,117.399 584.966,117.399 577,109.5C 571.441,98.0648 574.274,89.7315 585.5,84.5 Z"/></g>
<g><path style="opacity:1" fill="#97afd3" d="M 180.5,76.5 C 181.167,76.5 181.833,76.5 182.5,76.5C 182.5,79.8333 182.5,83.1667 182.5,86.5C 185.059,86.1984 187.393,86.5318 189.5,87.5C 182.833,87.5 176.167,87.5 169.5,87.5C 169.828,99.6783 169.495,111.678 168.5,123.5C 168.5,111.167 168.5,98.8333 168.5,86.5C 172.5,86.5 176.5,86.5 180.5,86.5C 180.5,83.1667 180.5,79.8333 180.5,76.5 Z"/></g>
<g><path style="opacity:1" fill="#4c4c4c" d="M 540.5,89.5 C 540.5,90.1667 540.833,90.5 541.5,90.5C 539.396,92.0987 537.396,93.932 535.5,96C 534.833,96.6667 534.167,96.6667 533.5,96C 535.703,93.6278 538.037,91.4611 540.5,89.5 Z"/></g>
<g><path style="opacity:1" fill="#e9ebed" d="M 585.5,88.5 C 596.3,88.469 600.8,93.8023 599,104.5C 596.24,110.297 591.74,112.463 585.5,111C 578.93,107.345 576.763,101.845 579,94.5C 580.494,91.6865 582.66,89.6865 585.5,88.5 Z"/></g>
<g><path style="opacity:1" fill="#0d0d0d" d="M 586.5,92.5 C 593.657,92.155 596.824,95.4884 596,102.5C 591.965,107.364 587.632,107.698 583,103.5C 581.663,98.9159 582.829,95.2493 586.5,92.5 Z"/></g>
<g><path style="opacity:1" fill="#9db4d6" d="M 335.5,92.5 C 336.404,93.209 336.737,94.209 336.5,95.5C 328.472,95.831 320.472,95.4977 312.5,94.5C 312.624,93.8933 312.957,93.56 313.5,93.5C 316.984,94.1654 320.651,94.4987 324.5,94.5C 328.565,94.4888 332.232,93.8222 335.5,92.5 Z"/></g>
<g><path style="opacity:1" fill="#406cb0" d="M 349.5,102.5 C 337.5,103.167 325.5,103.833 313.5,104.5C 312.957,104.44 312.624,104.107 312.5,103.5C 324.815,102.501 337.149,102.168 349.5,102.5 Z"/></g>
<g><path style="opacity:1" fill="#676767" d="M 638.5,109.5 C 638.5,108.833 638.167,108.5 637.5,108.5C 639.604,106.901 641.604,105.068 643.5,103C 644.167,102.333 644.833,102.333 645.5,103C 643.297,105.372 640.963,107.539 638.5,109.5 Z"/></g>
</svg>
