<?xml version="1.0" encoding="UTF-8"?>
<!DOCTYPE svg PUBLIC "-//W3C//DTD SVG 1.1//EN" "http://www.w3.org/Graphics/SVG/1.1/DTD/svg11.dtd">
<svg xmlns="http://www.w3.org/2000/svg" version="1.1" width="512px" height="512px" style="shape-rendering:geometricPrecision; text-rendering:geometricPrecision; image-rendering:optimizeQuality; fill-rule:evenodd; clip-rule:evenodd" xmlns:xlink="http://www.w3.org/1999/xlink">
<g><path style="opacity:0.981" fill="#fefffe" d="M 511.5,249.5 C 511.5,253.5 511.5,257.5 511.5,261.5C 469.655,307.145 420.321,342.645 363.5,368C 291.503,398 219.503,398 147.5,368C 100.736,347.303 58.7359,319.637 21.5,285C 13.567,277.572 6.23365,269.739 -0.5,261.5C -0.5,257.5 -0.5,253.5 -0.5,249.5C 6.23365,241.261 13.567,233.428 21.5,226C 177.503,85.3335 333.503,85.3335 489.5,226C 497.433,233.428 504.766,241.261 511.5,249.5 Z M 254.5,150.5 C 300.014,152.878 332.514,174.545 352,215.5C 369.085,266.015 356.918,307.848 315.5,341C 275.495,366.996 235.495,366.996 195.5,341C 155.612,309.652 142.779,269.486 157,220.5C 175.173,177.154 207.673,153.821 254.5,150.5 Z"/></g>
<g><path style="opacity:0.98" fill="#fefffe" d="M 243.5,180.5 C 259.567,178.459 274.734,181.126 289,188.5C 285.515,192.679 281.848,197.013 278,201.5C 265.696,225.775 270.196,246.275 291.5,263C 303.191,269.737 315.525,271.237 328.5,267.5C 329.141,272.636 328.308,277.636 326,282.5C 308.679,319.915 279.512,335.415 238.5,329C 207.377,320.21 188.21,300.043 181,268.5C 176.857,230.613 191.69,203.113 225.5,186C 231.519,183.835 237.519,182.001 243.5,180.5 Z"/></g>
</svg>
