<?xml version="1.0" encoding="UTF-8"?>
<!DOCTYPE svg PUBLIC "-//W3C//DTD SVG 1.1//EN" "http://www.w3.org/Graphics/SVG/1.1/DTD/svg11.dtd">
<svg xmlns="http://www.w3.org/2000/svg" version="1.1" width="512px" height="512px" style="shape-rendering:geometricPrecision; text-rendering:geometricPrecision; image-rendering:optimizeQuality; fill-rule:evenodd; clip-rule:evenodd" xmlns:xlink="http://www.w3.org/1999/xlink">
<g><path style="opacity:0.996" fill="#fefffe" d="M 69.5,-0.5 C 163.5,-0.5 257.5,-0.5 351.5,-0.5C 355.479,1.31481 358.312,4.31481 360,8.5C 360.667,143.167 360.667,277.833 360,412.5C 358.5,416.667 355.667,419.5 351.5,421C 257.5,421.667 163.5,421.667 69.5,421C 65.3333,419.5 62.5,416.667 61,412.5C 60.3333,277.833 60.3333,143.167 61,8.5C 62.6878,4.31481 65.5212,1.31481 69.5,-0.5 Z M 120.5,75.5 C 150.502,75.3334 180.502,75.5 210.5,76C 217.038,76.3463 221.538,79.5129 224,85.5C 225.79,96.4335 221.29,102.933 210.5,105C 180.5,105.667 150.5,105.667 120.5,105C 107.214,101.927 103.381,94.0936 109,81.5C 112.308,78.2645 116.141,76.2645 120.5,75.5 Z M 120.5,135.5 C 180.501,135.333 240.501,135.5 300.5,136C 309.441,136.773 314.108,141.607 314.5,150.5C 314.108,159.393 309.441,164.227 300.5,165C 240.5,165.667 180.5,165.667 120.5,165C 107.214,161.927 103.381,154.094 109,141.5C 112.308,138.265 116.141,136.265 120.5,135.5 Z M 120.5,195.5 C 180.501,195.333 240.501,195.5 300.5,196C 309.441,196.773 314.108,201.607 314.5,210.5C 314.108,219.393 309.441,224.227 300.5,225C 240.5,225.667 180.5,225.667 120.5,225C 107.214,221.927 103.381,214.094 109,201.5C 112.308,198.265 116.141,196.265 120.5,195.5 Z M 120.5,255.5 C 180.501,255.333 240.501,255.5 300.5,256C 309.441,256.773 314.108,261.607 314.5,270.5C 314.108,279.393 309.441,284.227 300.5,285C 240.5,285.667 180.5,285.667 120.5,285C 107.214,281.927 103.381,274.094 109,261.5C 112.308,258.265 116.141,256.265 120.5,255.5 Z M 240.5,315.5 C 262.212,315.056 283.878,315.556 305.5,317C 313.305,320.781 316.138,326.947 314,335.5C 311.187,340.996 306.687,344.162 300.5,345C 278.791,345.944 257.124,345.61 235.5,344C 227.695,340.219 224.862,334.053 227,325.5C 229.982,320.005 234.482,316.671 240.5,315.5 Z"/></g>
<g><path style="opacity:0.998" fill="#fefffe" d="M 441.5,511.5 C 347.5,511.5 253.5,511.5 159.5,511.5C 155.521,509.685 152.688,506.685 151,502.5C 150.5,485.503 150.333,468.503 150.5,451.5C 215.501,451.667 280.501,451.5 345.5,451C 372.333,448.167 387.167,433.333 390,406.5C 390.5,301.167 390.667,195.834 390.5,90.5C 407.503,90.3334 424.503,90.5001 441.5,91C 445.667,92.5 448.5,95.3333 450,99.5C 450.667,233.833 450.667,368.167 450,502.5C 448.312,506.685 445.479,509.685 441.5,511.5 Z"/></g>
</svg>
