<?xml version="1.0" encoding="UTF-8"?>
<!DOCTYPE svg PUBLIC "-//W3C//DTD SVG 1.1//EN" "http://www.w3.org/Graphics/SVG/1.1/DTD/svg11.dtd">
<svg xmlns="http://www.w3.org/2000/svg" version="1.1" width="512px" height="512px" style="shape-rendering:geometricPrecision; text-rendering:geometricPrecision; image-rendering:optimizeQuality; fill-rule:evenodd; clip-rule:evenodd" xmlns:xlink="http://www.w3.org/1999/xlink">
<g><path style="opacity:0.968" fill="#003a95" d="M 67.5,17.5 C 86.3775,14.6785 99.2108,22.0118 106,39.5C 109.227,50.3172 107.394,60.1505 100.5,69C 122.792,80.7463 133.959,99.2463 134,124.5C 132.207,127.295 130.04,129.795 127.5,132C 97.0886,153.02 65.4219,155.02 32.5,138C 27.3788,134.547 22.5455,130.714 18,126.5C 16.1554,108.366 21.6554,92.8657 34.5,80C 39.6947,75.9093 45.028,72.076 50.5,68.5C 40.0767,51.7652 42.0767,36.5986 56.5,23C 60.0167,20.6738 63.6834,18.8405 67.5,17.5 Z M 75.5,33.5 C 89.6612,37.1647 93.4945,45.498 87,58.5C 78.4157,65.6215 70.4157,64.9549 63,56.5C 58.8044,44.2216 62.9711,36.5549 75.5,33.5 Z M 70.5,80.5 C 96.102,80.6064 111.769,93.1064 117.5,118C 90.9559,136.53 63.9559,137.197 36.5,120C 35.1059,119.044 34.4393,117.711 34.5,116C 39.106,96.56 51.106,84.7267 70.5,80.5 Z"/></g>
<g><path style="opacity:0.967" fill="#003a95" d="M 427.5,17.5 C 451.232,15.2362 464.565,25.9029 467.5,49.5C 466.842,56.6435 464.509,63.1435 460.5,69C 483.645,81.1165 494.479,100.283 493,126.5C 469.172,147.997 441.672,154.497 410.5,146C 397.033,142.197 385.866,135.03 377,124.5C 377.041,99.2463 388.208,80.7463 410.5,69C 400.501,53.6415 401.501,38.9749 413.5,25C 417.826,21.6733 422.492,19.1733 427.5,17.5 Z M 430.5,34.5 C 445.262,33.4236 451.429,40.0903 449,54.5C 443.024,64.1448 435.191,65.9782 425.5,60C 417.766,49.6328 419.433,41.1328 430.5,34.5 Z M 430.5,80.5 C 456.598,80.4532 471.765,93.1199 476,118.5C 457.03,132.558 436.196,136.058 413.5,129C 406.223,126.363 399.556,122.696 393.5,118C 398.005,97.6621 410.338,85.1621 430.5,80.5 Z"/></g>
<g><path style="opacity:0.971" fill="#003b95" d="M 124.5,139.5 C 127.649,139.211 130.649,139.711 133.5,141C 148.333,155.833 163.167,170.667 178,185.5C 181.833,197.667 177.667,201.833 165.5,198C 150.667,183.167 135.833,168.333 121,153.5C 118.267,147.722 119.434,143.056 124.5,139.5 Z"/></g>
<g><path style="opacity:0.975" fill="#003a94" d="M 379.5,139.5 C 390.039,138.915 393.539,143.581 390,153.5C 375.167,168.333 360.333,183.167 345.5,198C 333.333,201.833 329.167,197.667 333,185.5C 348.395,169.938 363.895,154.604 379.5,139.5 Z"/></g>
<g><path style="opacity:0.968" fill="#003a95" d="M 241.5,170.5 C 287.248,166.958 322.414,184.292 347,222.5C 362.683,252.926 364.683,284.259 353,316.5C 330.448,362.87 293.282,384.037 241.5,380C 190.667,370.5 160.5,340.333 151,289.5C 146.969,243.732 164.136,208.565 202.5,184C 214.894,177.37 227.894,172.87 241.5,170.5 Z M 242.5,187.5 C 288.809,184.39 320.976,204.057 339,246.5C 348.25,275.661 344.083,302.661 326.5,327.5C 319.349,305.181 305.015,289.348 283.5,280C 296.14,264.901 297.64,248.734 288,231.5C 273.369,213.387 255.536,209.554 234.5,220C 218.652,231.878 213.485,247.378 219,266.5C 220.958,271.59 223.792,276.09 227.5,280C 205.985,289.348 191.651,305.181 184.5,327.5C 165.908,300.759 162.408,272.092 174,241.5C 187.91,212.08 210.744,194.08 242.5,187.5 Z M 250.5,231.5 C 264.386,230.239 273.22,236.239 277,249.5C 277.907,261.934 272.407,270.101 260.5,274C 246.183,275.683 237.35,269.516 234,255.5C 233.809,243.533 239.309,235.533 250.5,231.5 Z M 249.5,291.5 C 283.571,291.572 304.237,308.239 311.5,341.5C 309.331,345.776 305.998,348.943 301.5,351C 270.833,367.667 240.167,367.667 209.5,351C 205.002,348.943 201.669,345.776 199.5,341.5C 205.252,313.748 221.919,297.081 249.5,291.5 Z"/></g>
<g><path style="opacity:0.978" fill="#003b94" d="M 167.5,351.5 C 178.063,350.895 181.563,355.561 178,365.5C 163.167,380.333 148.333,395.167 133.5,410C 122,413.167 117.833,409 121,397.5C 136.395,381.938 151.895,366.604 167.5,351.5 Z"/></g>
<g><path style="opacity:0.972" fill="#003b95" d="M 335.5,351.5 C 338.978,351.184 342.312,351.684 345.5,353C 360.333,367.833 375.167,382.667 390,397.5C 393.167,409 389,413.167 377.5,410C 362.667,395.167 347.833,380.333 333,365.5C 330.425,360.034 331.258,355.367 335.5,351.5 Z"/></g>
<g><path style="opacity:0.965" fill="#003a95" d="M 68.5,361.5 C 91.7815,359.791 104.781,370.457 107.5,393.5C 107.633,400.938 105.299,407.438 100.5,413C 122.769,424.69 133.936,443.19 134,468.5C 132.221,472.612 129.388,475.778 125.5,478C 102.114,493.874 76.7809,497.874 49.5,490C 37.473,485.906 26.973,479.406 18,470.5C 16.4922,444.348 27.3255,425.182 50.5,413C 40.3704,396.76 42.0371,381.76 55.5,368C 59.6467,365.26 63.98,363.093 68.5,361.5 Z M 71.5,378.5 C 82.3581,377.58 88.6915,382.413 90.5,393C 89.4359,401.898 84.4359,407.065 75.5,408.5C 62.9082,405.312 58.7415,397.646 63,385.5C 65.4412,382.546 68.2745,380.213 71.5,378.5 Z M 67.5,425.5 C 94.3802,423.766 111.047,435.933 117.5,462C 90.0567,481.997 62.5567,482.163 35,462.5C 37.4688,442.862 48.3022,430.529 67.5,425.5 Z"/></g>
<g><path style="opacity:0.969" fill="#003a95" d="M 428.5,361.5 C 451.74,359.744 464.74,370.41 467.5,393.5C 467.241,400.78 464.907,407.28 460.5,413C 483.674,425.182 494.508,444.348 493,470.5C 473.265,489.317 449.765,496.817 422.5,493C 406.733,490.448 392.733,484.114 380.5,474C 378.959,472.421 377.792,470.587 377,468.5C 377.064,443.19 388.231,424.69 410.5,413C 399.69,396.085 401.69,380.752 416.5,367C 420.481,364.838 424.481,363.005 428.5,361.5 Z M 431.5,378.5 C 442.244,377.91 448.577,382.91 450.5,393.5C 446.882,406.811 438.882,410.644 426.5,405C 419.668,398.513 418.835,391.346 424,383.5C 426.426,381.548 428.926,379.881 431.5,378.5 Z M 426.5,425.5 C 451.675,422.992 468.175,433.659 476,457.5C 476.667,459.167 476.667,460.833 476,462.5C 448.484,482.2 420.984,482.033 393.5,462C 397.386,443.286 408.386,431.119 426.5,425.5 Z"/></g>
</svg>
