<?xml version="1.0" encoding="UTF-8"?>
<!DOCTYPE svg PUBLIC "-//W3C//DTD SVG 1.1//EN" "http://www.w3.org/Graphics/SVG/1.1/DTD/svg11.dtd">
<svg xmlns="http://www.w3.org/2000/svg" version="1.1" width="512px" height="512px" style="shape-rendering:geometricPrecision; text-rendering:geometricPrecision; image-rendering:optimizeQuality; fill-rule:evenodd; clip-rule:evenodd" xmlns:xlink="http://www.w3.org/1999/xlink">
<g><path style="opacity:0.969" fill="#3a9b9b" d="M 472.5,-0.5 C 483.5,-0.5 494.5,-0.5 505.5,-0.5C 507.833,1.16667 509.833,3.16667 511.5,5.5C 511.5,17.1667 511.5,28.8333 511.5,40.5C 499.004,141.828 455.504,227.161 381,296.5C 377.964,368.673 351.464,430.507 301.5,482C 294.204,486.156 288.037,484.99 283,478.5C 278.849,450.771 274.515,423.104 270,395.5C 265.786,399.382 261.286,402.882 256.5,406C 251.632,407.186 247.298,406.186 243.5,403C 198.333,357.833 153.167,312.667 108,267.5C 104.814,263.702 103.814,259.368 105,254.5C 108.118,249.714 111.618,245.214 115.5,241C 89.6224,236.446 63.6224,232.446 37.5,229C 26.3704,226.951 23.2037,220.785 28,210.5C 79.5948,159.835 141.761,133.002 214.5,130C 284.616,55.441 370.616,11.941 472.5,-0.5 Z M 476.5,21.5 C 480.833,21.5 485.167,21.5 489.5,21.5C 486.177,87.1499 466.677,147.483 431,202.5C 412.374,230.837 390.54,256.67 365.5,280C 327.888,313.054 290.388,346.22 253,379.5C 212.373,339.874 172.04,299.874 132,259.5C 131.333,258.5 131.333,257.5 132,256.5C 165.235,219.688 198.235,182.688 231,145.5C 297.33,73.7512 379.163,32.4179 476.5,21.5 Z M 359.5,114.5 C 386.585,115.079 398.418,128.746 395,155.5C 387.574,173.236 374.407,180.069 355.5,176C 337.764,168.574 330.931,155.407 335,136.5C 339.286,124.708 347.453,117.374 359.5,114.5 Z M 186.5,154.5 C 188.527,154.338 190.527,154.505 192.5,155C 173.36,177.307 153.693,199.14 133.5,220.5C 109.886,216.769 86.2195,213.269 62.5,210C 98.7804,180.363 140.114,161.863 186.5,154.5 Z M 355.5,318.5 C 350.887,367.408 332.72,410.741 301,448.5C 297.731,424.78 294.231,401.114 290.5,377.5C 311.888,357.442 333.554,337.775 355.5,318.5 Z"/></g>
<g><path style="opacity:0.967" fill="#3b9b9b" d="M 355.5,92.5 C 388.561,90.0926 409.395,104.759 418,136.5C 420.887,169.589 406.387,190.422 374.5,199C 341.411,201.887 320.578,187.387 312,155.5C 309.231,122.322 323.731,101.322 355.5,92.5 Z M 359.5,114.5 C 347.453,117.374 339.286,124.708 335,136.5C 330.931,155.407 337.764,168.574 355.5,176C 374.407,180.069 387.574,173.236 395,155.5C 398.418,128.746 386.585,115.079 359.5,114.5 Z"/></g>
<g><path style="opacity:0.967" fill="#3a9b9b" d="M 15.5,511.5 C 12.1667,511.5 8.83333,511.5 5.5,511.5C 3.16667,509.833 1.16667,507.833 -0.5,505.5C -0.5,502.167 -0.5,498.833 -0.5,495.5C 9.87757,462.391 21.7109,429.724 35,397.5C 40.9451,383.094 48.7784,369.927 58.5,358C 78.5429,341.058 101.21,336.391 126.5,344C 151.299,353.465 165.799,371.299 170,397.5C 172.66,423.995 163.493,445.161 142.5,461C 118.53,474.324 93.5302,485.324 67.5,494C 50.0211,499.77 32.6878,505.604 15.5,511.5 Z M 99.5,362.5 C 128.696,363.197 145.029,378.03 148.5,407C 147.849,420.97 142.182,432.303 131.5,441C 123.819,445.842 115.819,450.175 107.5,454C 81.6044,464.945 55.2711,474.779 28.5,483.5C 37.7897,449.867 50.2897,417.2 66,385.5C 73.6973,372.738 84.864,365.071 99.5,362.5 Z"/></g>
</svg>
