<?xml version="1.0" encoding="UTF-8"?>
<!DOCTYPE svg PUBLIC "-//W3C//DTD SVG 1.1//EN" "http://www.w3.org/Graphics/SVG/1.1/DTD/svg11.dtd">
<svg xmlns="http://www.w3.org/2000/svg" version="1.1" width="512px" height="512px" style="shape-rendering:geometricPrecision; text-rendering:geometricPrecision; image-rendering:optimizeQuality; fill-rule:evenodd; clip-rule:evenodd" xmlns:xlink="http://www.w3.org/1999/xlink">
<g><path style="opacity:0.989" fill="#fefffe" d="M 223.5,-0.5 C 244.833,-0.5 266.167,-0.5 287.5,-0.5C 299.415,3.39826 307.248,11.3983 311,23.5C 312.751,37.1781 314.585,50.8448 316.5,64.5C 316.709,65.9945 317.376,67.1612 318.5,68C 327.571,70.9124 336.405,74.4124 345,78.5C 357.884,68.638 371.051,59.138 384.5,50C 395.837,46.1124 406.504,47.4458 416.5,54C 430,67.5 443.5,81 457,94.5C 464.732,106.093 465.399,118.093 459,130.5C 449.767,142.062 440.934,153.895 432.5,166C 436.656,174.967 440.323,184.134 443.5,193.5C 460.225,196.007 476.891,198.84 493.5,202C 502.283,206.94 508.283,214.107 511.5,223.5C 511.5,244.833 511.5,266.167 511.5,287.5C 507.245,299.586 498.912,307.419 486.5,311C 473.856,312.831 461.189,314.497 448.5,316C 446.273,316.121 444.44,316.954 443,318.5C 440.088,327.571 436.588,336.405 432.5,345C 442.362,357.884 451.862,371.051 461,384.5C 464.888,395.837 463.554,406.504 457,416.5C 443.5,430 430,443.5 416.5,457C 405.733,464.108 394.399,465.108 382.5,460C 369.989,450.819 357.489,441.652 345,432.5C 336.033,436.656 326.866,440.323 317.5,443.5C 314.992,460.234 312.159,476.901 309,493.5C 304.06,502.283 296.893,508.283 287.5,511.5C 266.167,511.5 244.833,511.5 223.5,511.5C 211.585,507.602 203.752,499.602 200,487.5C 198.249,473.822 196.415,460.155 194.5,446.5C 194.291,445.006 193.624,443.839 192.5,443C 183.429,440.088 174.595,436.588 166,432.5C 153.511,441.652 141.011,450.819 128.5,460C 116.621,465.112 105.288,464.112 94.5,457C 81,443.5 67.5,430 54,416.5C 46.2681,404.907 45.6014,392.907 52,380.5C 61.2327,368.938 70.066,357.105 78.5,345C 74.344,336.033 70.6773,326.866 67.5,317.5C 50.7754,314.993 34.1087,312.16 17.5,309C 8.71746,304.06 2.71746,296.893 -0.5,287.5C -0.5,266.167 -0.5,244.833 -0.5,223.5C 3.39826,211.585 11.3983,203.752 23.5,200C 36.4893,198.251 49.4893,196.585 62.5,195C 64.7271,194.879 66.5604,194.046 68,192.5C 70.9124,183.429 74.4124,174.595 78.5,166C 68.638,153.116 59.138,139.949 50,126.5C 45.929,115.137 47.2623,104.47 54,94.5C 67.5,81 81,67.5 94.5,54C 104.496,47.4458 115.163,46.1124 126.5,50C 139.949,59.138 153.116,68.638 166,78.5C 174.967,74.344 184.134,70.6773 193.5,67.5C 196.008,50.7655 198.841,34.0988 202,17.5C 206.914,8.74798 214.081,2.74798 223.5,-0.5 Z M 243.5,149.5 C 289.125,147.06 323.958,165.06 348,203.5C 369.078,245.857 365.411,285.857 337,323.5C 302.397,360.442 261.23,370.275 213.5,353C 177.067,335.893 155.901,307.393 150,267.5C 147.512,214.621 170.346,177.454 218.5,156C 226.838,153.333 235.172,151.167 243.5,149.5 Z"/></g>
</svg>
