<?xml version="1.0" encoding="UTF-8"?>
<!DOCTYPE svg PUBLIC "-//W3C//DTD SVG 1.1//EN" "http://www.w3.org/Graphics/SVG/1.1/DTD/svg11.dtd">
<svg xmlns="http://www.w3.org/2000/svg" version="1.1" width="512px" height="512px" style="shape-rendering:geometricPrecision; text-rendering:geometricPrecision; image-rendering:optimizeQuality; fill-rule:evenodd; clip-rule:evenodd" xmlns:xlink="http://www.w3.org/1999/xlink">
<g><path style="opacity:0.958" fill="#3a9b9b" d="M 511.5,385.5 C 511.5,394.833 511.5,404.167 511.5,413.5C 499.822,463.838 468.156,490.838 416.5,494.5C 376.026,492.69 346.86,473.69 329,437.5C 322.217,421.133 319.884,404.133 322,386.5C 323.759,376.916 326.092,367.582 329,358.5C 316.246,350.75 303.246,343.417 290,336.5C 267,356.5 244,356.5 221,336.5C 207.266,343.607 194.1,351.441 181.5,360C 197.779,402.95 189.446,440.283 156.5,472C 122.013,498.095 85.3465,501.428 46.5,482C 20.7312,466.07 5.06449,443.237 -0.5,413.5C -0.5,404.167 -0.5,394.833 -0.5,385.5C 10.6895,334.655 42.3562,307.322 94.5,303.5C 127.006,304.835 153.173,318.168 173,343.5C 186.592,336.291 199.759,328.458 212.5,320C 206.762,295.516 214.762,277.183 236.5,265C 239.871,263.932 243.204,262.765 246.5,261.5C 247.5,243.179 247.833,224.845 247.5,206.5C 199.509,200.011 170.676,173.011 161,125.5C 157.022,77.2661 176.855,43.0995 220.5,23C 262.625,9.07265 298.792,18.2393 329,50.5C 349.712,77.0841 355.712,106.751 347,139.5C 332.979,179.019 305.145,201.353 263.5,206.5C 263.167,224.845 263.5,243.179 264.5,261.5C 290.343,269.189 302.177,286.523 300,313.5C 299.627,315.698 299.127,317.865 298.5,320C 311.241,328.458 324.408,336.291 338,343.5C 366.18,309.107 402.014,297.274 445.5,308C 482.14,321.489 504.14,347.322 511.5,385.5 Z M 246.5,33.5 C 286.984,32.3053 314.817,50.3053 330,87.5C 337.385,111.822 334.051,134.489 320,155.5C 312.642,138.141 300.475,125.308 283.5,117C 295.496,102.965 297.662,87.4649 290,70.5C 277.209,51.7929 260.042,46.2929 238.5,54C 216.393,67.8203 210.893,86.6536 222,110.5C 223.458,112.96 225.291,115.127 227.5,117C 210.525,125.308 198.358,138.141 191,155.5C 178.55,137.249 174.55,117.249 179,95.5C 188.43,60.5453 210.93,39.8786 246.5,33.5 Z M 250.5,67.5 C 268.977,67.1432 277.811,76.1432 277,94.5C 270.532,110.48 259.366,114.98 243.5,108C 232.947,99.6962 230.78,89.5295 237,77.5C 240.555,72.7629 245.055,69.4296 250.5,67.5 Z M 250.5,128.5 C 276.829,128.356 294.996,140.356 305,164.5C 305.837,166.821 306.17,169.155 306,171.5C 273.223,196.216 240.056,196.716 206.5,173C 205.426,172.261 204.759,171.261 204.5,170C 211.025,146.261 226.358,132.428 250.5,128.5 Z M 248.5,278.5 C 266.128,276.39 277.628,283.723 283,300.5C 284.797,316.418 278.297,327.252 263.5,333C 247.314,336.324 235.814,330.49 229,315.5C 224.984,297.529 231.484,285.196 248.5,278.5 Z M 88.5,320.5 C 129.434,320.614 156.601,339.948 170,378.5C 175.73,401.784 172.064,423.451 159,443.5C 152.171,425.504 140.004,412.504 122.5,404.5C 137.404,385.41 137.071,366.577 121.5,348C 101.36,333.164 82.1932,334.331 64,351.5C 53.4483,367.014 52.7817,383.014 62,399.5C 63.5,401 65,402.5 66.5,404C 49.5248,412.308 37.3581,425.141 30,442.5C 17.171,424.02 13.171,403.687 18,381.5C 28.6861,346.311 52.1861,325.978 88.5,320.5 Z M 410.5,320.5 C 452.827,321.055 480.327,341.388 493,381.5C 497.828,403.692 493.828,424.026 481,442.5C 473.642,425.141 461.475,412.308 444.5,404C 453.959,394.011 457.459,382.178 455,368.5C 447.41,344.781 431.244,334.948 406.5,339C 385.31,346.189 375.81,361.023 378,383.5C 379.386,391.606 382.886,398.606 388.5,404.5C 370.996,412.504 358.829,425.504 352,443.5C 335.186,416.076 334.186,388.076 349,359.5C 363.372,336.736 383.872,323.736 410.5,320.5 Z M 90.5,354.5 C 109.978,355.464 118.145,365.464 115,384.5C 107.177,398.886 96.0102,402.386 81.5,395C 69.5,383 69.5,371 81.5,359C 84.4375,357.199 87.4375,355.699 90.5,354.5 Z M 413.5,354.5 C 432.93,356.092 440.763,366.425 437,385.5C 430.194,397.431 420.361,401.264 407.5,397C 394.018,388.55 391.184,377.384 399,363.5C 403.053,359.066 407.886,356.066 413.5,354.5 Z M 84.5,416.5 C 111.959,413.641 131.459,424.641 143,449.5C 144.164,452.481 144.831,455.481 145,458.5C 123.266,476.389 98.766,481.556 71.5,474C 62.9422,471.054 54.9422,467.054 47.5,462C 45.552,460.561 44.2186,458.728 43.5,456.5C 49.5743,435.311 63.2409,421.978 84.5,416.5 Z M 406.5,416.5 C 433.514,413.752 453.014,424.418 465,448.5C 466.321,451.77 466.987,455.103 467,458.5C 444.202,477.162 418.702,481.996 390.5,473C 380.971,469.613 372.637,464.446 365.5,457.5C 371.578,436.089 385.245,422.422 406.5,416.5 Z"/></g>
</svg>
