<?xml version="1.0" encoding="UTF-8"?>
<!DOCTYPE svg PUBLIC "-//W3C//DTD SVG 1.1//EN" "http://www.w3.org/Graphics/SVG/1.1/DTD/svg11.dtd">
<svg xmlns="http://www.w3.org/2000/svg" version="1.1" width="512px" height="512px" style="shape-rendering:geometricPrecision; text-rendering:geometricPrecision; image-rendering:optimizeQuality; fill-rule:evenodd; clip-rule:evenodd" xmlns:xlink="http://www.w3.org/1999/xlink">
<g><path style="opacity:0.979" fill="#fefffe" d="M 21.5,-0.5 C 26.8333,-0.5 32.1667,-0.5 37.5,-0.5C 41.3166,0.840466 44.9833,2.6738 48.5,5C 117.347,74.0136 186.347,142.847 255.5,211.5C 324.653,142.847 393.653,74.0136 462.5,5C 466.017,2.6738 469.683,0.840466 473.5,-0.5C 478.833,-0.5 484.167,-0.5 489.5,-0.5C 500.5,3.16667 507.833,10.5 511.5,21.5C 511.5,26.8333 511.5,32.1667 511.5,37.5C 510.16,41.3166 508.326,44.9833 506,48.5C 436.986,117.347 368.153,186.347 299.5,255.5C 368.153,324.653 436.986,393.653 506,462.5C 508.326,466.017 510.16,469.683 511.5,473.5C 511.5,478.833 511.5,484.167 511.5,489.5C 507.833,500.5 500.5,507.833 489.5,511.5C 484.167,511.5 478.833,511.5 473.5,511.5C 469.683,510.16 466.017,508.326 462.5,506C 393.653,436.986 324.653,368.153 255.5,299.5C 186.347,368.153 117.347,436.986 48.5,506C 44.9833,508.326 41.3166,510.16 37.5,511.5C 32.1667,511.5 26.8333,511.5 21.5,511.5C 10.5,507.833 3.16667,500.5 -0.5,489.5C -0.5,484.167 -0.5,478.833 -0.5,473.5C 0.840466,469.683 2.6738,466.017 5,462.5C 74.0136,393.653 142.847,324.653 211.5,255.5C 142.847,186.347 74.0136,117.347 5,48.5C 2.6738,44.9833 0.840466,41.3166 -0.5,37.5C -0.5,32.1667 -0.5,26.8333 -0.5,21.5C 3.16667,10.5 10.5,3.16667 21.5,-0.5 Z"/></g>
</svg>
